<svg width="93" height="16" viewBox="0 0 93 16" fill="none" xmlns="http://www.w3.org/2000/svg">
<path d="M37.168 1.23071H39.8007L43.4835 9.65009L47.1664 1.23071H49.7991L44.6612 12.2706H42.3059L37.168 1.23071Z" fill="#009DC2"/>
<path d="M49.5228 8.10324C49.5228 7.50522 49.6503 6.94487 49.9053 6.42219C50.1654 5.89951 50.5329 5.44276 51.0079 5.05192C51.488 4.66109 52.0655 4.35266 52.7406 4.12664C53.4207 3.90062 54.1832 3.7876 55.0283 3.7876C55.8734 3.7876 56.6334 3.90062 57.3085 4.12664C57.9886 4.35266 58.5661 4.66109 59.0412 5.05192C59.5212 5.44276 59.8887 5.89951 60.1438 6.42219C60.4038 6.94487 60.5338 7.50522 60.5338 8.10324C60.5338 8.70126 60.4038 9.26161 60.1438 9.78429C59.8887 10.307 59.5212 10.7637 59.0412 11.1546C58.5661 11.5454 57.9886 11.8538 57.3085 12.0798C56.6334 12.3059 55.8734 12.4189 55.0283 12.4189C54.1832 12.4189 53.4207 12.3059 52.7406 12.0798C52.0655 11.8538 51.488 11.5454 51.0079 11.1546C50.5329 10.7637 50.1654 10.307 49.9053 9.78429C49.6503 9.26161 49.5228 8.70126 49.5228 8.10324ZM51.8555 8.10324C51.8555 8.43757 51.9255 8.75541 52.0655 9.05678C52.2105 9.35344 52.4181 9.61713 52.6881 9.84786C52.9631 10.0739 53.2956 10.2552 53.6857 10.3917C54.0807 10.5236 54.5283 10.5895 55.0283 10.5895C55.5283 10.5895 55.9734 10.5236 56.3634 10.3917C56.7585 10.2552 57.091 10.0739 57.361 9.84786C57.636 9.61713 57.8436 9.35344 57.9836 9.05678C58.1286 8.75541 58.2011 8.43757 58.2011 8.10324C58.2011 7.76892 58.1286 7.45107 57.9836 7.14971C57.8436 6.84834 57.636 6.58465 57.361 6.35862C57.091 6.12789 56.7585 5.9466 56.3634 5.81475C55.9734 5.6782 55.5283 5.60992 55.0283 5.60992C54.5283 5.60992 54.0807 5.6782 53.6857 5.81475C53.2956 5.9466 52.9631 6.12789 52.6881 6.35862C52.4181 6.58465 52.2105 6.84834 52.0655 7.14971C51.9255 7.45107 51.8555 7.76892 51.8555 8.10324Z" fill="#009DC2"/>
<path d="M62.6052 13.3159C62.8352 13.4572 63.0852 13.582 63.3553 13.6903C63.6253 13.7986 63.9053 13.888 64.1953 13.9587C64.4904 14.0293 64.7904 14.0811 65.0954 14.1141C65.4004 14.1517 65.703 14.1706 66.003 14.1706C67.0231 14.1706 67.8082 13.9634 68.3582 13.549C68.9133 13.1393 69.1908 12.5225 69.1908 11.6984V11.4159C68.9958 11.543 68.7758 11.6608 68.5307 11.7691C68.2907 11.8727 68.0307 11.9621 67.7507 12.0375C67.4756 12.1128 67.1831 12.1717 66.8731 12.214C66.5681 12.2517 66.258 12.2706 65.943 12.2706C65.2679 12.2706 64.6629 12.1787 64.1278 11.9951C63.5978 11.8067 63.1477 11.5336 62.7777 11.1758C62.4127 10.8132 62.1327 10.3682 61.9376 9.8408C61.7426 9.31341 61.6451 8.71068 61.6451 8.03261V3.93593H63.8578V7.45342C63.8578 8.46111 64.0603 9.20511 64.4654 9.68541C64.8754 10.161 65.5205 10.3988 66.4005 10.3988C67.0206 10.3988 67.5681 10.2976 68.0432 10.0951C68.5232 9.88789 68.9058 9.62419 69.1908 9.30399V3.93593H71.411V11.317C71.411 12.1128 71.291 12.8026 71.051 13.3865C70.8109 13.9751 70.4609 14.4625 70.0009 14.8486C69.5458 15.2348 68.9858 15.522 68.3207 15.7103C67.6557 15.9034 66.9006 15.9999 66.0555 15.9999C65.2304 15.9999 64.4604 15.9175 63.7453 15.7527C63.0302 15.5879 62.3752 15.3643 61.7801 15.0817L62.6052 13.3159Z" fill="#009DC2"/>
<path d="M77.3227 5.67349H72.7848V3.93593H81.4406L75.9801 10.533H81.1406V12.2706H71.8997L77.3227 5.67349Z" fill="#009DC2"/>
<path d="M81.6368 8.07499C81.6368 7.50993 81.7593 6.97077 82.0044 6.45751C82.2494 5.93954 82.6019 5.48278 83.062 5.08724C83.522 4.6917 84.0846 4.37621 84.7496 4.14077C85.4197 3.90533 86.1797 3.7876 87.0298 3.7876C87.8749 3.7876 88.635 3.90768 89.31 4.14783C89.9901 4.38327 90.5652 4.70818 91.0352 5.12256C91.5102 5.53693 91.8728 6.0243 92.1228 6.58465C92.3778 7.145 92.5053 7.74537 92.5053 8.38577C92.5053 8.46582 92.5028 8.55294 92.4978 8.64711C92.4978 8.73658 92.4928 8.81898 92.4828 8.89433H84.1121C84.2071 9.14389 84.3596 9.37227 84.5696 9.57946C84.7846 9.78665 85.0521 9.96558 85.3722 10.1163C85.6922 10.2669 86.0622 10.3847 86.4823 10.4694C86.9023 10.5495 87.3674 10.5895 87.8774 10.5895C88.3875 10.5895 88.895 10.5401 89.4 10.4412C89.9051 10.3376 90.3876 10.2081 90.8477 10.0527L91.5977 11.649C91.3077 11.7761 91.0127 11.8891 90.7127 11.988C90.4176 12.0822 90.1076 12.1622 89.7826 12.2282C89.4625 12.2894 89.125 12.3365 88.77 12.3694C88.42 12.4024 88.0499 12.4189 87.6599 12.4189C86.6648 12.4189 85.7922 12.3059 85.0421 12.0798C84.2921 11.8538 83.6645 11.5454 83.1595 11.1546C82.6544 10.7637 82.2744 10.3046 82.0194 9.77723C81.7643 9.24984 81.6368 8.68243 81.6368 8.07499ZM90.1501 7.26272C90.0701 7.03198 89.9451 6.81773 89.7751 6.61996C89.6101 6.41748 89.4025 6.24326 89.1525 6.09728C88.9025 5.9466 88.6125 5.82888 88.2824 5.74412C87.9524 5.65936 87.5899 5.61698 87.1948 5.61698C86.7748 5.61698 86.3923 5.66172 86.0472 5.75118C85.7022 5.84065 85.3997 5.96073 85.1397 6.11141C84.8796 6.26209 84.6621 6.43632 84.4871 6.63409C84.3171 6.83186 84.1921 7.0414 84.1121 7.26272H90.1501Z" fill="#009DC2"/>
<g clip-path="url(#clip0_40_715)">
<path d="M31.9665 14.0914C32.0208 14.2397 32.1288 14.3655 32.2719 14.4468C32.4149 14.5282 32.5838 14.5599 32.7493 14.5366C32.8123 14.5277 32.8738 14.5108 32.932 14.4863C33.0705 14.2021 33.2021 13.9096 33.3238 13.6175C34.8306 9.97283 34.9501 5.95278 33.6622 2.23517L33.656 2.21736V2.19887C33.6534 2.17627 33.6505 2.15298 33.6461 2.12695C33.6082 1.89247 33.5175 1.66822 33.3801 1.46909L33.3775 1.46532C33.2036 1.215 32.9615 1.01271 32.6762 0.879361C32.391 0.746013 32.0729 0.686434 31.7548 0.706777H31.7505C31.7026 0.709859 31.6536 0.714996 31.6043 0.721845C31.1349 0.789361 30.7135 1.02878 30.4325 1.38744C30.1515 1.74611 30.034 2.19467 30.1059 2.63448C30.1143 2.68722 30.1256 2.73961 30.1391 2.78961V2.79543C30.1657 2.89347 30.2017 2.98906 30.2466 3.08105L30.2535 3.09748C30.5263 3.85352 30.728 4.63043 30.8565 5.41935C31.1695 7.30689 31.0522 9.23515 30.5123 11.0771C30.4491 11.2939 30.3778 11.5151 30.301 11.7343C30.27 11.8265 30.2123 11.9089 30.1343 11.9722C30.0563 12.0355 29.961 12.0772 29.8592 12.0929H29.8548C29.6921 12.116 29.5256 12.0938 29.3762 12.0291C29.2268 11.9644 29.1009 11.86 29.0142 11.7288C28.9718 11.6634 28.9451 11.5901 28.9362 11.514C28.9272 11.4379 28.9361 11.3609 28.9624 11.2884C29.0219 11.1172 29.0771 10.946 29.1264 10.7799C29.6272 9.10139 29.7386 7.34188 29.4532 5.61969C29.3907 5.2358 29.307 4.85087 29.2072 4.47554L29.2025 4.45807V4.43992C29.2001 4.37238 29.1935 4.30503 29.1827 4.23821C29.1484 4.02436 29.07 3.81883 28.9518 3.63309L28.947 3.62624C28.7817 3.3687 28.5456 3.15754 28.2633 3.01487C27.9811 2.8722 27.6631 2.80327 27.3426 2.8153H27.339C27.087 2.82488 26.8401 2.8842 26.6144 2.98938C26.3886 3.09456 26.1891 3.24323 26.0289 3.42565C25.8687 3.60808 25.7514 3.82015 25.6846 4.04799C25.6179 4.27583 25.6033 4.5143 25.6418 4.74779C25.6487 4.78855 25.6567 4.82964 25.6666 4.86971L25.6684 4.87724C25.6825 4.93402 25.6998 4.99004 25.7203 5.04505L25.7258 5.06148C25.8291 5.40984 25.9101 5.76366 25.9685 6.12105C26.1334 7.12199 26.1162 8.14187 25.9177 9.13743V9.1436C25.8866 9.29907 25.8497 9.459 25.808 9.61927C25.7789 9.7367 25.7133 9.8434 25.6195 9.92593C25.5257 10.0084 25.4079 10.0631 25.281 10.083H25.2759C25.1646 10.0989 25.051 10.0927 24.9424 10.0649C24.8338 10.037 24.7327 9.98812 24.6455 9.92132C24.5511 9.84757 24.4808 9.75045 24.4424 9.64104C24.4041 9.53162 24.3994 9.41431 24.4288 9.3025C24.4653 9.16551 24.4957 9.02853 24.5231 8.8936L24.5253 8.88401C24.6796 8.10155 24.703 7.30136 24.5947 6.51214V6.49057C24.5941 6.30233 24.5604 6.11548 24.4949 5.9375V5.93304C24.4021 5.6852 24.2484 5.46125 24.0463 5.27922C23.8442 5.09719 23.5993 4.96216 23.3313 4.88501C23.0634 4.80785 22.7798 4.79072 22.5035 4.83499C22.2272 4.87927 21.9658 4.98371 21.7405 5.13991L21.7346 5.14402C21.5115 5.30068 21.3303 5.50378 21.2053 5.73728C21.0803 5.97078 21.0149 6.2283 21.0143 6.48954C21.0146 6.67246 21.0464 6.85413 21.1086 7.02754L21.1155 7.04603V7.06556C21.1906 7.78245 21.0739 8.50558 20.776 9.16962C20.8288 9.30845 20.9314 9.42575 21.0664 9.50142C21.2014 9.57708 21.3602 9.6064 21.5157 9.58434C21.6065 9.57169 21.6936 9.54161 21.7715 9.49599L21.8446 9.32304C21.9336 9.12295 21.9997 8.9146 22.042 8.70148L22.0449 8.68573C22.1871 8.10819 22.2253 7.51243 22.1578 6.92309V6.91042C22.1487 6.82994 22.1377 6.75049 22.1253 6.67378C22.1172 6.6255 22.1081 6.57515 22.0982 6.52344C22.0646 6.35479 22.1018 6.18048 22.202 6.0369C22.3023 5.89332 22.4578 5.79158 22.6362 5.75291C22.6515 5.74983 22.6669 5.74709 22.6826 5.74503C22.7335 5.73763 22.785 5.73499 22.8365 5.73716C22.9962 5.74615 23.1479 5.80532 23.2673 5.90511C23.3867 6.00491 23.4666 6.1395 23.4943 6.28715C23.5064 6.34845 23.5173 6.41077 23.5276 6.47242C23.5411 6.55598 23.5528 6.63748 23.5641 6.71454C23.6476 7.38105 23.623 8.05557 23.491 8.71518L23.4881 8.73025L23.4826 8.74429C23.4235 8.89008 23.3866 9.04295 23.373 9.19839V9.20695C23.3499 9.48303 23.4 9.76019 23.5187 10.0138C23.6374 10.2674 23.8211 10.4896 24.0535 10.6607C24.3683 10.8909 24.756 11.0165 25.1553 11.0175H25.1725C25.2582 11.0165 25.3436 11.01 25.4283 10.998C25.7201 10.9563 25.9963 10.8475 26.2322 10.6813C26.4682 10.5152 26.6565 10.2969 26.7805 10.046L26.786 10.035C26.8867 9.82932 26.9415 9.60649 26.9468 9.38024V9.36585L26.9498 9.35181C27.1761 8.23693 27.1973 7.09402 27.0126 5.97243C26.9625 5.66421 26.8971 5.35977 26.8182 5.0632L26.816 5.05772L26.8138 5.04642C26.7688 4.87758 26.7177 4.70396 26.6614 4.53273C26.6227 4.41831 26.6205 4.29579 26.655 4.18021C26.6895 4.06462 26.7593 3.961 26.8558 3.88206C26.9776 3.78393 27.1262 3.71975 27.2849 3.69679H27.2926C27.4476 3.67868 27.6045 3.71231 27.7358 3.79177C27.867 3.87124 27.9642 3.99146 28.0103 4.13137C28.0801 4.34335 28.1437 4.55773 28.1989 4.76903C28.2848 5.09642 28.3564 5.4334 28.4112 5.77003C28.6898 7.44546 28.5591 9.15828 28.029 10.7795L28.026 10.7881C28.0228 10.7977 28.0195 10.8073 28.0165 10.8172V10.8436L28.0045 10.8603C27.9125 11.1665 27.9152 11.4909 28.0123 11.7957C28.1093 12.1005 28.2967 12.3733 28.5527 12.5822C28.8568 12.8297 29.2409 12.9744 29.6432 12.9932H29.6491C29.9613 13.0058 30.2716 12.9418 30.5492 12.8074C30.8269 12.673 31.0622 12.473 31.2319 12.2271L31.245 12.2079C31.4101 11.9626 31.5045 11.6813 31.5188 11.3915V11.372L31.5242 11.3535C32.1066 9.37431 32.2338 7.30181 31.8974 5.27313C31.7695 4.4867 31.5739 3.71124 31.3126 2.95434V2.9492C31.2578 2.79167 31.1986 2.63105 31.1372 2.47386C31.0924 2.36058 31.0841 2.23749 31.1131 2.11979C31.1421 2.00209 31.2073 1.89493 31.3006 1.81155C31.4245 1.7018 31.5812 1.63012 31.7497 1.60607H31.7556C31.9048 1.5877 32.0562 1.61751 32.1849 1.6906C32.3136 1.76368 32.4118 1.87568 32.4635 2.00812C32.5366 2.1999 32.6097 2.39168 32.6714 2.57729C33.87 6.06284 33.7561 9.82822 32.3487 13.2445C32.231 13.5271 32.1035 13.812 31.9665 14.0914Z" fill="#009DC2"/>
<path d="M20.4088 9.21362C20.4085 9.21492 20.4085 9.21626 20.4088 9.21756V9.21362Z" fill="#009DC2"/>
<path d="M1.66637 13.3005L1.66857 13.3032C1.84234 13.5537 2.08432 13.7562 2.36951 13.8897C2.65471 14.0232 2.97277 14.083 3.29085 14.0628H3.29926C3.34604 14.0597 3.39355 14.0546 3.44069 14.0481C3.91002 13.9806 4.33152 13.7412 4.61251 13.3825C4.89349 13.0238 5.01097 12.5753 4.93909 12.1355C4.93068 12.0827 4.91935 12.0303 4.90583 11.98V11.9755C4.87945 11.8771 4.84348 11.7812 4.79838 11.6889L4.79144 11.6725C4.51888 10.9164 4.31711 10.1395 4.18843 9.35058C3.87546 7.46304 3.99279 5.53479 4.53269 3.69281C4.59592 3.47638 4.66682 3.25549 4.74393 3.03563C4.77504 2.94345 4.8328 2.86115 4.91079 2.79786C4.98879 2.73457 5.08397 2.69277 5.18577 2.67708C5.34897 2.65326 5.51603 2.67502 5.66611 2.73964C5.81619 2.80426 5.94262 2.90888 6.02963 3.04043C6.07226 3.10575 6.09911 3.17903 6.10826 3.25512C6.11742 3.33121 6.10866 3.40825 6.08262 3.48083C6.02305 3.65206 5.96786 3.82329 5.91853 3.98938C5.41773 5.66786 5.30633 7.42737 5.5918 9.14956C5.6543 9.53345 5.73799 9.91838 5.83776 10.2937L5.84251 10.3112V10.3293C5.84484 10.3969 5.85143 10.4642 5.86224 10.531C5.8968 10.7459 5.97589 10.9524 6.09504 11.1389L6.09833 11.1434C6.26355 11.4005 6.49935 11.6114 6.78115 11.7541C7.06295 11.8968 7.38044 11.966 7.70052 11.9546H7.70673C7.95847 11.9447 8.20514 11.8852 8.43063 11.7798C8.65611 11.6745 8.85534 11.5257 9.01529 11.3433C9.17523 11.1609 9.2923 10.9489 9.35883 10.7212C9.42536 10.4934 9.43986 10.2551 9.40138 10.0218C9.3948 9.98105 9.38639 9.93995 9.37653 9.89988V9.89269C9.36269 9.83687 9.34573 9.78178 9.32573 9.72763L9.31915 9.70811C9.21596 9.35973 9.13493 9.00592 9.07648 8.64854C8.91157 7.64783 8.92874 6.62818 9.12728 5.63285V5.626C9.15835 5.47018 9.19526 5.31025 9.23692 5.15032C9.26606 5.03289 9.33167 4.92619 9.42546 4.84367C9.51925 4.76114 9.63702 4.7065 9.76392 4.68663H9.76867C9.88003 4.67066 9.99373 4.6768 10.1024 4.70464C10.2111 4.73249 10.3123 4.78142 10.3995 4.84827C10.4935 4.92222 10.5635 5.01943 10.6015 5.12883C10.6395 5.23824 10.644 5.35544 10.6143 5.46709C10.5778 5.60408 10.5471 5.74106 10.5201 5.87805L10.5179 5.88729C10.3636 6.66976 10.3402 7.46995 10.4484 8.25916V8.2804C10.4487 8.36582 10.4558 8.4511 10.4696 8.53553C10.4859 8.63701 10.5123 8.73687 10.5482 8.83381V8.83826C10.641 9.08594 10.7945 9.30977 10.9964 9.49175C11.1983 9.67372 11.443 9.80878 11.7107 9.88605C11.9784 9.96332 12.2618 9.98066 12.5379 9.93667C12.8141 9.89268 13.0754 9.78859 13.3009 9.63277L13.31 9.62626C13.5327 9.46957 13.7135 9.26659 13.8383 9.03328C13.963 8.79997 14.0282 8.54271 14.0289 8.28176C14.0285 8.09885 13.9966 7.91718 13.9346 7.74376L13.928 7.72527L13.9258 7.70575C13.8517 6.98823 13.9696 6.26471 14.269 5.60065C14.2162 5.46183 14.1135 5.34453 13.9786 5.26886C13.8436 5.1932 13.6848 5.16388 13.5293 5.18593C13.4384 5.19858 13.3513 5.22866 13.2734 5.27429L13.2004 5.44552C13.1113 5.64581 13.0451 5.85439 13.003 6.06777L13.0001 6.08283C12.8577 6.66093 12.8195 7.25728 12.8872 7.84718V7.85814C12.8967 7.93965 12.9076 8.01876 12.92 8.09478C12.9281 8.14375 12.9372 8.19444 12.9471 8.24512C12.9807 8.41382 12.9435 8.58817 12.8432 8.73176C12.7429 8.87534 12.5872 8.97706 12.4088 9.01566C12.3938 9.01874 12.3784 9.02148 12.3631 9.02353C12.3121 9.0311 12.2604 9.03374 12.2089 9.03141C12.0492 9.02242 11.8974 8.96325 11.778 8.86345C11.6587 8.76365 11.5787 8.62906 11.551 8.48142C11.539 8.42046 11.528 8.35779 11.5178 8.29615C11.5042 8.21259 11.4925 8.13143 11.4812 8.05369C11.3977 7.38728 11.4224 6.71288 11.5543 6.05338L11.5572 6.03832L11.5627 6.02428C11.6224 5.87845 11.66 5.72546 11.6742 5.56983V5.56504C11.6979 5.28876 11.6483 5.01128 11.5299 4.75728C11.4115 4.50329 11.2279 4.28067 10.9955 4.10924L10.9904 4.10582C10.6717 3.87274 10.2782 3.74758 9.87392 3.75069C9.78827 3.75172 9.7028 3.75824 9.6181 3.77021C9.32493 3.81205 9.04748 3.92161 8.81078 4.08901C8.57408 4.25641 8.38556 4.47638 8.26223 4.7291L8.25931 4.73492C8.15855 4.94047 8.10382 5.1632 8.09851 5.38936V5.40374L8.09558 5.41778C7.86928 6.53277 7.84802 7.67581 8.03272 8.79751C8.08316 9.10572 8.14894 9.41393 8.22861 9.71187V9.71872C8.27393 9.88824 8.32546 10.0612 8.38247 10.2355C8.42119 10.3499 8.42341 10.4724 8.38887 10.588C8.35434 10.7036 8.28454 10.8072 8.18804 10.8862C8.06632 10.9843 7.91768 11.0485 7.75899 11.0714H7.75278C7.59756 11.0901 7.44028 11.0569 7.3086 10.9777C7.17691 10.8985 7.07926 10.7783 7.03282 10.6382C6.96338 10.4269 6.89979 10.2125 6.84424 10.0006C6.75836 9.67318 6.68673 9.3362 6.63191 8.99956C6.35322 7.32341 6.48418 5.60985 7.01491 3.98801L7.0171 3.98151C7.02222 3.96712 7.02697 3.9524 7.03136 3.93801V3.93322C7.12973 3.62408 7.13092 3.29493 7.0348 2.98517C6.93868 2.67541 6.74931 2.39818 6.48938 2.18668C6.18516 1.93901 5.80098 1.79429 5.39847 1.77573H5.39299C5.07803 1.76312 4.7651 1.82865 4.48583 1.96569C4.20655 2.10273 3.97084 2.30643 3.8025 2.55619L3.79775 2.56304C3.63333 2.80894 3.53977 3.09059 3.52621 3.38049V3.40001L3.52073 3.4185C2.93839 5.39768 2.8112 7.47018 3.14759 9.49886C3.27552 10.2853 3.47107 11.0607 3.73233 11.8177V11.8228C3.78752 11.9803 3.84636 12.1409 3.90775 12.2981C3.95253 12.4114 3.96091 12.5345 3.93188 12.6522C3.90285 12.7699 3.83767 12.8771 3.74439 12.9604C3.6205 13.0704 3.46361 13.1421 3.29487 13.1659H3.28866C3.13897 13.1845 2.98701 13.1544 2.85804 13.0809C2.72907 13.0073 2.63084 12.8946 2.57967 12.7615C2.50657 12.5697 2.43348 12.3783 2.37172 12.1923C1.17306 8.70674 1.2871 4.9413 2.69478 1.52505C2.8121 1.24183 2.94038 0.956566 3.07669 0.677462C3.02232 0.529212 2.91424 0.403498 2.77123 0.322165C2.62822 0.240833 2.45931 0.209024 2.29387 0.232266C2.23081 0.241215 2.16934 0.258149 2.11114 0.282606C1.97263 0.566847 1.84107 0.859307 1.71937 1.15142C0.212577 4.79608 0.0930532 8.81612 1.38095 12.5337L1.38716 12.5515L1.38899 12.57C1.39155 12.5926 1.39447 12.6159 1.39886 12.642C1.4371 12.8768 1.5283 13.1013 1.66637 13.3005V13.3005Z" fill="#009DC2"/>
<path d="M13.2578 5.28491L13.2533 5.28807L13.2578 5.28491Z" fill="#009DC2"/>
<path d="M17.1678 5.21849C16.6329 5.29523 16.1429 5.54339 15.7814 5.92069C15.4199 6.29799 15.2091 6.78108 15.1851 7.28766C15.1611 7.79423 15.3252 8.29293 15.6496 8.6988C15.974 9.10467 16.4385 9.39259 16.964 9.5135C17.4896 9.63441 18.0436 9.58083 18.5317 9.36189C19.0197 9.14296 19.4117 8.77221 19.6408 8.31281C19.8699 7.85342 19.9219 7.33381 19.7879 6.84251C19.654 6.35122 19.3424 5.91864 18.9063 5.61848C18.4062 5.27464 17.7809 5.13079 17.1678 5.21849V5.21849Z" fill="#009DC2"/>
</g>
<defs>
<clipPath id="clip0_40_715">
<rect width="34.0538" height="14.7692" fill="white" transform="translate(0.494675)"/>
</clipPath>
</defs>
</svg>
